<?xml version="1.0" encoding="UTF-8"?>
<svg version="1.1" xmlns="http://www.w3.org/2000/svg" width="783" height="293">
<path d="M0 0 C1.35568336 0.00333092 1.35568336 0.00333092 2.73875427 0.00672913 C3.75973709 0.00680466 4.78071991 0.00688019 5.8326416 0.00695801 C6.94304306 0.01211929 8.05344452 0.01728058 9.19749451 0.02259827 C10.89336952 0.02472069 10.89336952 0.02472069 12.62350464 0.02688599 C16.25105891 0.03250433 19.8785525 0.04505994 23.50608826 0.05775452 C25.95856133 0.06276715 28.41103536 0.06733047 30.86351013 0.07142639 C36.89022371 0.08247971 42.91690165 0.09923568 48.94358826 0.12025452 C49.0306257 9.72154362 48.78473228 19.24989498 48.28733826 28.83900452 C48.21973293 30.19465958 48.15247965 31.55033223 48.08555603 32.90602112 C47.91094391 36.42839034 47.73249946 39.95055334 47.55290222 43.47267151 C47.26467441 49.13519735 46.98175915 54.79798842 46.70013428 60.46084595 C46.60189781 62.42287026 46.50146525 64.38478423 46.40098572 66.34669495 C46.34092346 67.5423407 46.28086121 68.73798645 46.21897888 69.96986389 C46.1656842 71.01573669 46.11238953 72.0616095 46.05747986 73.13917542 C45.94298538 76.1360346 45.92385517 79.12152487 45.94358826 82.12025452 C46.24837097 81.41046448 46.55315369 80.70067444 46.86717224 79.96937561 C54.43902162 62.35996848 62.16493256 44.82517008 70.02928162 27.34437561 C70.37720764 26.57000153 70.72513367 25.79562744 71.08360291 24.99778748 C71.72261756 23.57591629 72.36262129 22.15448883 73.00401306 20.73368835 C76.07574431 13.8988064 78.98997638 7.01201555 81.94358826 0.12025452 C101.74358826 0.12025452 121.54358826 0.12025452 141.94358826 0.12025452 C139.65777267 24.12131822 139.65777267 24.12131822 138.43577576 34.77259827 C138.16876797 37.13782353 137.90184308 39.50305816 137.63499451 41.86830139 C137.22362386 45.49564004 136.81115899 49.12284881 136.39720154 52.74989319 C135.99051821 56.31964267 135.58790064 59.88983284 135.18577576 63.46009827 C135.06080719 64.54443649 134.93583862 65.62877472 134.80708313 66.74597168 C134.26670118 71.56122156 133.77762358 76.26500472 133.94358826 81.12025452 C134.29550232 80.41642639 134.64741638 79.71259827 135.00999451 78.98744202 C145.93186951 57.14369202 145.93186951 57.14369202 156.85374451 35.29994202 C157.1765741 34.65388 157.49940369 34.00781799 157.83201599 33.34217834 C158.48517177 32.03667494 159.13961375 30.73181417 159.7953949 29.42762756 C161.73875145 25.55752434 163.64708302 21.67273662 165.52952576 17.77259827 C165.97183533 16.86542053 166.4141449 15.9582428 166.86985779 15.02357483 C167.7358099 13.24695158 168.59389586 11.46646718 169.44309998 9.68177795 C170.03888855 8.46603088 170.03888855 8.46603088 170.64671326 7.22572327 C171.16733337 6.14520691 171.16733337 6.14520691 171.69847107 5.04286194 C173.20906321 2.71032996 174.58205473 1.59136548 176.94358826 0.12025452 C179.40356827 -0.24888897 179.40356827 -0.24888897 182.20805359 -0.24050903 C183.80657669 -0.24669502 183.80657669 -0.24669502 185.43739319 -0.25300598 C186.60120514 -0.24222015 187.76501709 -0.23143433 188.96409607 -0.22032166 C190.80839706 -0.22097878 190.80839706 -0.22097878 192.68995667 -0.22164917 C196.05759768 -0.21991772 199.42468639 -0.20487683 202.79222965 -0.1839273 C206.31294184 -0.16516831 209.83366145 -0.16341068 213.35441589 -0.15985107 C220.01963863 -0.1505283 226.68471368 -0.12591145 233.3498714 -0.09580261 C240.93867436 -0.06226577 248.52748439 -0.0457744 256.11634302 -0.0307163 C271.72551029 0.00063797 287.33453022 0.0534029 302.94358826 0.12025452 C304.31356656 4.53546358 303.16131044 7.99172141 301.92405701 12.31556702 C301.70542496 13.1042215 301.48679291 13.89287598 301.26153564 14.70542908 C300.79787366 16.36927427 300.32938908 18.03178206 299.85643005 19.69300842 C299.13268447 22.23963794 298.42669507 24.7907086 297.72288513 27.34291077 C297.270156 28.95908981 296.81641428 30.57498562 296.36155701 32.19056702 C296.04422859 33.33744492 296.04422859 33.33744492 295.7204895 34.50749207 C294.17455752 39.88928526 294.17455752 39.88928526 291.94358826 42.12025452 C289.1983363 42.29596458 286.55422897 42.34792634 283.80955505 42.31214905 C282.54832321 42.30794197 282.54832321 42.30794197 281.26161194 42.3036499 C279.43202625 42.29714152 277.60245167 42.28654407 275.77290916 42.27238846 C272.87700473 42.25296101 269.98159467 42.25071597 267.08563232 42.2542572 C258.8506361 42.26396372 250.61612237 42.26429973 242.3813324 42.19935608 C237.347127 42.16090834 232.31420161 42.16123417 227.27993202 42.18693161 C225.36096856 42.18934793 223.44192985 42.17724042 221.52315331 42.15034866 C218.83591743 42.11423037 216.15307633 42.12750723 213.46580505 42.1519928 C212.67340927 42.12943924 211.88101349 42.10688568 211.06460571 42.08364868 C208.76251538 42.13532318 207.08321448 42.26000721 204.94358826 43.12025452 C202.74844173 45.55394226 201.32369505 48.16245207 199.94358826 51.12025452 C199.61358826 51.78025452 199.28358826 52.44025452 198.94358826 53.12025452 C243.49358826 53.61525452 243.49358826 53.61525452 288.94358826 54.12025452 C288.02307539 61.48435743 286.50703809 68.12425491 284.56858826 75.24525452 C284.26436951 76.39896545 283.96015076 77.55267639 283.64671326 78.74134827 C280.06988417 91.9939586 280.06988417 91.9939586 276.94358826 95.12025452 C273.82427246 95.22968934 270.72628729 95.27449525 267.60618591 95.27796936 C266.62574814 95.28305008 265.64531036 95.2881308 264.63516235 95.29336548 C262.49837269 95.30409484 260.36157162 95.31270487 258.22476578 95.31948471 C254.84650457 95.33123077 251.4683737 95.350672 248.09016418 95.37260437 C238.48243014 95.43436775 228.8747085 95.48831186 219.26683044 95.5216217 C213.39765172 95.5425221 207.52870861 95.57778952 201.65966415 95.6223793 C199.41813804 95.63657839 197.17657023 95.6452705 194.93500137 95.64843369 C191.80300867 95.65332115 188.67164533 95.67642362 185.53977966 95.70375061 C184.14167809 95.69924141 184.14167809 95.69924141 182.71533203 95.69464111 C181.86282364 95.7057341 181.01031525 95.71682709 180.13197327 95.72825623 C179.39122873 95.73156637 178.6504842 95.73487652 177.88729286 95.73828697 C175.25452532 96.25566587 174.59742818 96.99437035 172.94358826 99.12025452 C171.62358826 101.43025452 170.30358826 103.74025452 168.94358826 106.12025452 C221.41358826 106.61525452 221.41358826 106.61525452 274.94358826 107.12025452 C270.2451067 127.08880115 270.2451067 127.08880115 267.88108826 134.93275452 C267.51660583 136.19829163 267.51660583 136.19829163 267.14476013 137.48939514 C266.78027771 138.708526 266.78027771 138.708526 266.40843201 139.95228577 C266.19823425 140.66102844 265.9880365 141.36977112 265.77146912 142.09999084 C264.73806115 144.62179885 263.88107626 146.16697709 261.94358826 148.12025452 C258.82578754 148.61244583 258.82578754 148.61244583 254.90118408 148.60127258 C254.17991559 148.60469028 253.4586471 148.60810798 252.71552199 148.61162925 C250.2922011 148.618232 247.86998136 148.59619399 245.44676208 148.57435608 C243.71235175 148.57322811 241.9779395 148.57386047 240.24353027 148.5761261 C235.52881576 148.57727616 230.81450635 148.55371969 226.09988618 148.52583027 C221.17514222 148.50086521 216.25038951 148.49847849 211.32559204 148.49372864 C201.99703636 148.48128444 192.66866766 148.44844332 183.3401944 148.40833068 C172.72124806 148.36365786 162.10229289 148.34163723 151.48327601 148.32154894 C129.63660897 148.27971194 107.79011038 148.20933186 85.94358826 148.12025452 C86.04381287 147.18366501 86.14403748 146.2470755 86.24729919 145.28210449 C87.19297687 136.44028708 88.13477111 127.59806344 89.07279968 118.75543118 C89.55513128 114.20975568 90.03881291 109.66423243 90.52561951 105.11903381 C90.99567412 100.72976942 91.46213059 96.34013599 91.9261322 91.95022774 C92.10346837 90.27843247 92.28208384 88.60677238 92.46202087 86.93525505 C92.71450978 84.5876839 92.9623777 82.23966613 93.20921326 79.89149475 C93.28401917 79.20600555 93.35882507 78.52051636 93.43589783 77.81425476 C93.87648064 73.56573524 94.0086033 69.39000051 93.94358826 65.12025452 C93.40786194 66.36560974 93.40786194 66.36560974 92.86131287 67.63612366 C91.50065371 70.7960885 90.13792599 73.95514595 88.77391052 77.11366272 C88.19043206 78.46585851 87.60771686 79.81838398 87.02586365 81.17127991 C83.4202082 89.55325817 79.70012271 97.86647084 75.81590271 106.12294006 C73.70477385 110.61555842 71.64017126 115.12916784 69.57640076 119.64369202 C68.82900928 121.27650651 68.08161343 122.909319 67.33421326 124.54212952 C66.18766593 127.04784213 65.04183386 129.5538732 63.89768982 132.0606842 C62.771763 134.52677539 61.64307732 136.99158749 60.51390076 139.45619202 C60.16916718 140.21330475 59.82443359 140.97041748 59.46925354 141.75047302 C57.05722951 147.00661326 57.05722951 147.00661326 55.94358826 148.12025452 C54.10240796 148.21406754 52.25761184 148.23769406 50.41404724 148.23377991 C49.23289841 148.23370438 48.05174957 148.23362885 46.83480835 148.23355103 C45.54941666 148.22838974 44.26402496 148.22322845 42.93968201 148.21791077 C40.97745445 148.21578835 40.97745445 148.21578835 38.97558594 148.21362305 C35.49195967 148.20979861 32.00837486 148.19996898 28.52476501 148.18891907 C24.97232118 148.17870334 21.41987066 148.17412508 17.86741638 148.16908264 C10.89278994 148.15834664 3.91819108 148.14127111 -3.05641174 148.12025452 C-3.07973947 128.97110805 -3.09739029 109.82196445 -3.10822392 90.67280674 C-3.11338714 81.78215625 -3.12043035 72.89151458 -3.1318512 64.00086975 C-3.14179722 56.25464225 -3.14826498 48.50842113 -3.15050024 40.76218742 C-3.15180748 36.65804533 -3.15489421 32.55392149 -3.1621418 28.44978523 C-3.16890073 24.59130811 -3.17102897 20.73285687 -3.16951942 16.87437439 C-3.16979581 15.45413002 -3.17180169 14.03388483 -3.17561722 12.61364555 C-3.18055241 10.68283581 -3.17880978 8.75201237 -3.17666626 6.82119751 C-3.17758805 5.73809075 -3.17850985 4.654984 -3.17945957 3.53905582 C-3.00837227 0.17592311 -3.00837227 0.17592311 0 0 Z M94.94358826 60.12025452 C95.94358826 62.12025452 95.94358826 62.12025452 95.94358826 62.12025452 Z M131.94358826 84.12025452 C132.94358826 86.12025452 132.94358826 86.12025452 132.94358826 86.12025452 Z " fill="#000000" transform="translate(6.0564117431640625,37.87974548339844)"/>
<path d="M0 0 C1.05119019 -0.00615326 2.10238037 -0.01230652 3.1854248 -0.01864624 C4.31984009 -0.00427521 5.45425537 0.01009583 6.62304688 0.02490234 C7.78807739 0.02581879 8.95310791 0.02673523 10.15344238 0.02767944 C12.61812409 0.03372498 15.08279813 0.04949926 17.54736328 0.07421875 C21.32677181 0.11069483 25.10519959 0.11523842 28.88476562 0.11474609 C31.27670121 0.124578 33.66863013 0.13623531 36.06054688 0.14990234 C37.19496216 0.15212799 38.32937744 0.15435364 39.49816895 0.15664673 C40.54935913 0.16940643 41.60054932 0.18216614 42.68359375 0.1953125 C44.07233704 0.20674789 44.07233704 0.20674789 45.48913574 0.21841431 C47.84179688 0.48583984 47.84179688 0.48583984 50.84179688 2.48583984 C51.70713806 4.51014709 51.70713806 4.51014709 52.40405273 7.03295898 C52.6712059 7.97897476 52.93835907 8.92499054 53.21360779 9.89967346 C53.63090904 11.44472816 53.63090904 11.44472816 54.05664062 13.02099609 C54.50216026 14.62097694 54.50216026 14.62097694 54.9566803 16.25328064 C55.58633787 18.52245904 56.21056673 20.79314961 56.82983398 23.06518555 C57.76210979 26.48528811 58.70946037 29.90089547 59.66015625 33.31591797 C63.97913403 48.90703851 68.21846671 64.50423636 70.84179688 80.48583984 C71.07511719 79.27798828 71.3084375 78.07013672 71.54882812 76.82568359 C74.5740857 61.83356307 78.61417591 47.20074019 82.83129883 32.5090332 C83.06209641 31.70493515 83.29289398 30.9008371 83.53068542 30.07237244 C83.98691161 28.4861791 84.44474007 26.90044565 84.9042511 25.31520081 C85.98200604 21.57871636 87.02040661 17.8400839 87.96630859 14.06787109 C88.14113266 13.37733643 88.31595673 12.68680176 88.49607849 11.9753418 C88.96143059 10.11649961 89.4137094 8.25439821 89.86499023 6.39208984 C90.86730657 3.40994197 91.40473693 2.36688777 93.84179688 0.48583984 C96.02482605 0.12507629 96.02482605 0.12507629 98.58862305 0.14526367 C99.54939255 0.14549026 100.51016205 0.14571686 101.50004578 0.14595032 C103.0517321 0.1691761 103.0517321 0.1691761 104.63476562 0.19287109 C105.69593094 0.19711594 106.75709625 0.20136078 107.85041809 0.20573425 C111.24363452 0.22254278 114.6362596 0.26019966 118.02929688 0.29833984 C120.32811643 0.31338384 122.62694528 0.32707274 124.92578125 0.33935547 C130.5646553 0.37245339 136.20318384 0.42267454 141.84179688 0.48583984 C141.21607821 6.79903362 139.86347826 12.66166658 138.16601562 18.76708984 C137.88863052 19.78168274 137.61124542 20.79627563 137.32545471 21.84161377 C136.39887777 25.22455197 135.46417995 28.60518847 134.52929688 31.98583984 C133.8716971 34.37929202 133.21447979 36.77284931 132.55761719 39.16650391 C130.3291816 47.27576972 128.087006 55.38120418 125.84179688 63.48583984 C125.63128944 64.24581268 125.42078201 65.00578552 125.20389557 65.78878784 C120.96363564 81.09575049 116.71669785 96.40085886 112.45776367 111.70263672 C112.24717851 112.45928997 112.03659334 113.21594322 111.81962681 113.99552536 C110.82950836 117.55283876 109.83900961 121.1100455 108.84779358 124.66705322 C108.49551193 125.93208679 108.14323029 127.19712036 107.78027344 128.50048828 C107.44870239 129.68606323 107.11713135 130.87163818 106.7755127 132.09313965 C106.16316492 134.31813401 105.56710286 136.54768853 104.98913574 138.78186035 C104.73136353 139.77504272 104.47359131 140.7682251 104.20800781 141.79150391 C103.99013611 142.65487366 103.7722644 143.51824341 103.54779053 144.40777588 C102.84179688 146.48583984 102.84179688 146.48583984 100.84179688 148.48583984 C98.57142639 148.75999451 98.57142639 148.75999451 95.70532227 148.79223633 C94.6340358 148.80822372 93.56274933 148.82421112 92.45899963 148.84068298 C91.29754929 148.84604568 90.13609894 148.85140839 88.93945312 148.85693359 C87.75081161 148.86596207 86.5621701 148.87499054 85.33750916 148.8842926 C82.81983978 148.89882149 80.30213242 148.90768836 77.78442383 148.91137695 C73.92334743 148.92328111 70.06386417 148.97245145 66.203125 149.02294922 C63.76107554 149.03241177 61.31901623 149.03964761 58.87695312 149.04443359 C57.71752701 149.06396591 56.55810089 149.08349823 55.36354065 149.10362244 C53.75188271 149.09450584 53.75188271 149.09450584 52.10766602 149.08520508 C51.16105606 149.09027573 50.21444611 149.09534637 49.239151 149.10057068 C46.84179688 148.48583984 46.84179688 148.48583984 45.1083374 146.24217224 C43.9659538 143.75603866 43.05642606 141.41373582 42.3112793 138.78515625 C41.92023262 137.42555283 41.92023262 137.42555283 41.52128601 136.03848267 C41.24935928 135.06462616 40.97743256 134.09076965 40.69726562 133.08740234 C40.40499588 132.06141937 40.11272614 131.0354364 39.81159973 129.97836304 C39.19220085 127.79887788 38.57629427 125.61839764 37.96362305 123.43701172 C37.04954269 120.1829143 36.12546163 116.93180606 35.19921875 113.68115234 C31.22076134 99.66510412 27.45759772 85.59960383 23.84179688 71.48583984 C23.67454102 72.46174072 23.50728516 73.4376416 23.33496094 74.44311523 C21.62666404 84.12672905 19.34291375 93.47787255 16.59179688 102.92333984 C16.19451847 104.30627334 15.79796463 105.68941517 15.40209961 107.07275391 C14.80129144 109.17140164 14.19984782 111.26984695 13.59544373 113.36746216 C12.29129213 117.89544443 11.01882142 122.43115479 9.76757812 126.97412109 C9.45143555 128.12017822 9.13529297 129.26623535 8.80957031 130.44702148 C8.2204065 132.58742757 7.63368845 134.72850887 7.04980469 136.87036133 C6.78651367 137.82112549 6.52322266 138.77188965 6.25195312 139.75146484 C6.02644775 140.57420898 5.80094238 141.39695313 5.56860352 142.24462891 C4.84179688 144.48583984 4.84179688 144.48583984 2.84179688 148.48583984 C-13.65820312 148.48583984 -30.15820312 148.48583984 -47.15820312 148.48583984 C-44.79740834 138.45246202 -42.4409286 128.4846818 -39.70678711 118.55615234 C-39.48707245 117.75725586 -39.26735779 116.95835937 -39.04098511 116.13525391 C-38.81154205 115.30219727 -38.582099 114.46914062 -38.34570312 113.61083984 C-37.85225441 111.81397597 -37.35884821 110.01710042 -36.86547852 108.22021484 C-35.6950184 103.96083202 -34.52166626 99.70225322 -33.34765625 95.44384766 C-31.69092305 89.42947374 -30.04309701 83.41270533 -28.3984375 77.39501953 C-26.09138635 68.95392514 -23.77725821 60.51480064 -21.45644855 52.07747841 C-20.1436333 47.3039714 -18.83379001 42.52969274 -17.53085327 37.753479 C-16.28532052 33.18854083 -15.031249 28.62603108 -13.77091217 24.06515884 C-13.30064895 22.35764462 -12.83344532 20.64928455 -12.36943817 18.94005966 C-11.72766934 16.57798522 -11.075038 14.2191735 -10.41967773 11.86083984 C-10.23422488 11.16814562 -10.04877203 10.47545139 -9.85769939 9.76176643 C-8.10503583 3.5379599 -6.88085325 -0.02118176 0 0 Z " fill="#000000" transform="translate(495.158203125,37.51416015625)"/>
<path d="M0 0 C43.56 0 87.12 0 132 0 C133.35632937 4.0689881 132.13762265 7.07350282 131.015625 11.0625 C130.79936462 11.85019775 130.58310425 12.63789551 130.36029053 13.44946289 C129.90036424 15.11494792 129.43607616 16.77923365 128.96777344 18.44238281 C128.2537512 20.98663347 127.55964968 23.53574606 126.8671875 26.0859375 C126.41786296 27.70345779 125.96738026 29.3206569 125.515625 30.9375 C125.30923401 31.70006104 125.10284302 32.46262207 124.89019775 33.24829102 C122.97443782 39.949748 122.97443782 39.949748 120 42 C117.42190246 42.30944465 115.07969486 42.43752652 112.49926758 42.43237305 C111.73805099 42.4425647 110.97683441 42.45275635 110.19255066 42.46325684 C107.67646995 42.49345107 105.16076953 42.50266236 102.64453125 42.51171875 C100.90002674 42.52856071 99.15553439 42.5467103 97.41105652 42.56611633 C92.81946618 42.61367505 88.22792517 42.64344633 83.63616943 42.66955566 C78.95070652 42.69933164 74.26541372 42.7458721 69.58007812 42.79101562 C60.38680763 42.87711548 51.19350218 42.94443097 42 43 C41.01 46.3 40.02 49.6 39 53 C72.165 53.495 72.165 53.495 106 54 C101.30321782 73.96132426 101.30321782 73.96132426 99.375 80.875 C99.17132812 81.63167969 98.96765625 82.38835937 98.7578125 83.16796875 C97.82659987 86.52869125 96.95042562 89.07436157 95 92 C87.81415255 93.50387674 80.4038073 93.12733779 73.09375 93.09765625 C71.75996962 93.09578772 70.42618854 93.09436587 69.09240723 93.09336853 C65.60723933 93.0895776 62.1221141 93.07977715 58.63696289 93.06866455 C55.07048113 93.05837623 51.50399237 93.05385511 47.9375 93.04882812 C40.95831597 93.0381513 33.97916004 93.02111676 27 93 C26.814375 94.5159375 26.814375 94.5159375 26.625 96.0625 C26 100 26 100 24 107 C64.095 106.505 64.095 106.505 105 106 C103.41562935 113.92185325 101.61645782 121.669572 99.54101562 129.46191406 C98.99409051 131.52226194 98.45789951 133.58523042 97.921875 135.6484375 C97.5735655 136.96371366 97.22463053 138.27882438 96.875 139.59375 C96.40707031 141.36782227 96.40707031 141.36782227 95.9296875 143.17773438 C95 146 95 146 93 148 C90.67679405 148.24609566 90.67679405 148.24609566 87.71029663 148.24050903 C86.0275489 148.24463303 86.0275489 148.24463303 84.31080627 148.24884033 C83.0743486 148.24164978 81.83789093 148.23445923 80.56396484 148.22705078 C79.26644791 148.22734283 77.96893097 148.22763489 76.63209534 148.22793579 C73.06822281 148.228511 69.50448417 148.21672956 65.94064283 148.20278788 C62.21838015 148.19030851 58.4961146 148.18911223 54.77383423 148.18673706 C47.72255206 148.18051405 40.6713317 148.16409218 33.62007678 148.14403808 C25.59358963 148.12170456 17.56709957 148.11069207 9.54058909 148.10064721 C-6.97297682 148.07972663 -23.48648053 148.04453477 -40 148 C-39.68351564 146.40153565 -39.36614487 144.80324679 -39.04840088 143.20503235 C-38.87176029 142.31496648 -38.69511971 141.42490061 -38.51312637 140.50786304 C-37.9181894 137.60015738 -37.22795703 134.72864424 -36.484375 131.85546875 C-36.20207031 130.76427734 -35.91976562 129.67308594 -35.62890625 128.54882812 C-35.33886719 127.43958984 -35.04882812 126.33035156 -34.75 125.1875 C-34.47542969 124.12080078 -34.20085938 123.05410156 -33.91796875 121.95507812 C-32.18200009 115.27977264 -30.33826909 108.64316285 -28.4296875 102.015625 C-25.53787825 91.96809273 -22.74256591 81.89485712 -19.9609375 71.81640625 C-19.73602127 71.00163504 -19.51110504 70.18686382 -19.27937317 69.34740257 C-17.88068615 64.27967263 -16.48328609 59.21158849 -15.08636475 54.14337158 C-13.20585121 47.32076197 -11.32433682 40.49842896 -9.44169998 33.67640495 C-8.79426077 31.32939209 -8.14762673 28.98215853 -7.50106812 26.63490295 C-7.09628583 25.16748143 -6.69147174 23.70006868 -6.28662109 22.23266602 C-5.94053802 20.97696304 -5.59445496 19.72126007 -5.23788452 18.42750549 C-3.51841661 12.27753473 -1.75431996 6.14011985 0 0 Z " fill="#000000" transform="translate(649,38)"/>
<path d="M0 0 C7.43690545 0.00453671 14.8737952 0.00109776 22.31069976 -0.00362808 C30.59980194 -0.00867614 38.88889507 -0.00820157 47.17799795 -0.00524634 C50.61300291 -0.0041451 54.04799802 -0.00505696 57.48300207 -0.00772589 C61.41551493 -0.01058336 65.34799528 -0.00866954 69.28050458 -0.00283164 C70.71376272 -0.00150468 72.14702359 -0.00189708 73.58028066 -0.0040943 C75.52133436 -0.00680093 77.46239405 -0.0028153 79.40344465 0.00158578 C81.02862217 0.00215132 81.02862217 0.00215132 82.68663156 0.00272828 C85.10035932 0.12856942 85.10035932 0.12856942 86.10035932 1.12856942 C86.18667806 2.47124355 86.20742405 3.81831264 86.19801557 5.16372567 C86.19479291 5.97261239 86.19157026 6.78149911 86.18824995 7.61489755 C86.17987104 8.46503427 86.17149213 9.31517099 86.16285932 10.19106942 C86.1583476 11.04507333 86.15383588 11.89907724 86.14918745 12.77896005 C86.13736305 14.89552606 86.11942701 17.01205627 86.10035932 19.12856942 C56.47749019 19.24824131 26.87988594 18.99099753 -2.73676836 18.38833505 C-13.36770037 18.17212079 -23.99893747 17.97160408 -34.6301533 17.76991922 C-37.13135255 17.72243883 -39.63254908 17.67481542 -42.13374293 17.62705117 C-70.39129737 17.08781419 -98.65001229 16.63135471 -126.90924227 16.18997461 C-130.83678044 16.12857506 -134.76431414 16.06689695 -138.69184649 16.00512582 C-163.90720854 15.608614 -189.12265042 15.21733488 -214.33813763 14.82887655 C-226.56254713 14.64053254 -238.78693263 14.45067826 -251.01130164 14.25972444 C-257.83049738 14.15327539 -264.64970455 14.04772091 -271.4689461 13.94424325 C-319.49990627 13.21504125 -319.49990627 13.21504125 -339.32932818 12.62856942 C-362.99147398 11.929131 -386.66158198 11.63507669 -410.33092898 11.28286958 C-417.28606379 11.179169 -424.24114339 11.07195419 -431.1962198 10.96441847 C-455.83538491 10.5834862 -480.47463193 10.2081851 -505.1140337 9.84287089 C-516.83873876 9.66897496 -528.56337868 9.49107566 -540.287974 9.30993253 C-546.75306126 9.21019821 -553.21816767 9.11248964 -559.6833626 9.01995736 C-596.44227733 8.49265587 -633.1628633 7.47416556 -669.89964068 6.12856942 C-669.56964068 5.13856942 -669.23964068 4.14856942 -668.89964068 3.12856942 C-668.00544421 3.12471721 -667.11124774 3.12086499 -666.1899544 3.11689603 C-612.46297608 2.88538583 -558.73600778 2.65165404 -505.00905067 2.41527021 C-498.46981381 2.38650118 -491.93057688 2.35774961 -485.3913399 2.32900888 C-484.09020931 2.32328996 -482.78907873 2.31757104 -481.44851995 2.31167882 C-462.01182096 2.22628634 -442.57511713 2.14206698 -423.13841021 2.05850106 C-394.31532105 1.93452065 -365.49224044 1.80868904 -336.66917083 1.68024212 C-334.19462486 1.66921693 -331.72007885 1.65820345 -329.24553278 1.6472016 C-267.91982439 1.37451437 -206.59510421 1.06131462 -145.27073443 0.56997567 C-96.84648216 0.18203875 -48.42582314 -0.03310184 0 0 Z " fill="#000000" transform="translate(672.8996406793594,192.87143057584763)"/>
<path d="M0 0 C3.5430054 2.73245935 5.27033999 6.11961372 6.65625 10.27734375 C8.31283835 30.3870682 3.51590183 50.01041346 -9.65625 65.65234375 C-15.26064267 71.60701096 -21.6170431 75.82131196 -29.89453125 76.48046875 C-37.08271799 76.60247475 -41.92027105 76.05313749 -47.65625 71.40234375 C-52.37142898 65.46471097 -52.97233599 57.62608546 -52.34375 50.27734375 C-49.71940006 32.52681933 -44.09517515 13.7828126 -29.34375 2.27734375 C-20.43987243 -3.18906696 -9.48915618 -5.4640428 0 0 Z " fill="#000000" transform="translate(403.34375,75.72265625)"/>
<path d="M0 0 C0.91394531 -0.00257813 1.82789063 -0.00515625 2.76953125 -0.0078125 C3.72730469 -0.00007812 4.68507812 0.00765625 5.671875 0.015625 C7.08533203 0.00402344 7.08533203 0.00402344 8.52734375 -0.0078125 C16.0572712 0.01330932 21.81247796 0.81204455 27.421875 6.265625 C29.86475406 10.15202351 29.58110535 13.71094776 28.97265625 18.109375 C28.18179616 21.20550813 26.69137783 23.06489498 24.421875 25.265625 C23.761875 25.595625 23.101875 25.925625 22.421875 26.265625 C23.14503906 26.93658203 23.14503906 26.93658203 23.8828125 27.62109375 C28.57243544 32.10973285 31.06349432 35.04019885 31.796875 41.640625 C31.35157109 45.94522943 30.21175194 49.00170211 27.421875 52.265625 C20.27787688 58.05241262 13.62720376 58.44642355 4.734375 58.453125 C3.4340332 58.47149414 3.4340332 58.47149414 2.10742188 58.49023438 C0.86508789 58.49313477 0.86508789 58.49313477 -0.40234375 58.49609375 C-1.53289185 58.50225708 -1.53289185 58.50225708 -2.6862793 58.50854492 C-4.578125 58.265625 -4.578125 58.265625 -6.578125 56.265625 C-6.83209229 53.98852539 -6.83209229 53.98852539 -6.83691406 51.11328125 C-6.84321838 50.03876709 -6.84952271 48.96425293 -6.85601807 47.85717773 C-6.8519696 46.69259033 -6.84792114 45.52800293 -6.84375 44.328125 C-6.84566345 43.13711182 -6.8475769 41.94609863 -6.84954834 40.71899414 C-6.8509113 38.19710072 -6.84720716 35.67520031 -6.83886719 33.15332031 C-6.82816953 29.28174151 -6.83875906 25.41062678 -6.8515625 21.5390625 C-6.85024093 19.09374897 -6.84767858 16.64843573 -6.84375 14.203125 C-6.84779846 13.0385376 -6.85184692 11.8739502 -6.85601807 10.67407227 C-6.84971375 9.59955811 -6.84340942 8.52504395 -6.83691406 7.41796875 C-6.83532288 6.46913818 -6.83373169 5.52030762 -6.83209229 4.54272461 C-6.33537335 0.08908603 -3.88014402 0.0105316 0 0 Z M4.421875 8.265625 C4.421875 13.215625 4.421875 18.165625 4.421875 23.265625 C10.94766969 23.45470683 10.94766969 23.45470683 16.421875 21.265625 C18.75231058 17.76997164 19.00950744 16.3790521 18.421875 12.265625 C16.20644803 9.54994032 14.60926389 8.38873221 11.0859375 8.0234375 C8.86312793 8.01642548 6.64074482 8.13315516 4.421875 8.265625 Z M4.421875 31.265625 C4.421875 37.205625 4.421875 43.145625 4.421875 49.265625 C11.21187101 49.76336902 11.21187101 49.76336902 17.484375 47.703125 C20.09714456 44.41609232 20.56656796 42.46172095 20.421875 38.265625 C18.54008472 34.58459839 18.54008472 34.58459839 15.421875 32.265625 C11.67008887 31.46580524 8.28943931 31.35881932 4.421875 31.265625 Z " fill="#010101" transform="translate(247.578125,216.734375)"/>
<path d="M0 0 C1.01255859 -0.020625 2.02511719 -0.04125 3.06835938 -0.0625 C11.87285628 -0.10791327 19.8574147 1.12472059 26.4296875 7.421875 C32.79921989 15.14452049 32.85346861 24.70708286 32.15625 34.25244141 C31.39687965 41.1867809 29.23495849 46.46747575 24.125 51.25 C16.11117929 57.47635141 8.11240845 58.41959265 -1.75 58.375 C-3.0503418 58.38080078 -3.0503418 58.38080078 -4.37695312 58.38671875 C-5.20517578 58.38542969 -6.03339844 58.38414062 -6.88671875 58.3828125 C-7.64041748 58.38168457 -8.39411621 58.38055664 -9.1706543 58.37939453 C-11.0625 58.25 -11.0625 58.25 -13.0625 57.25 C-13.0625 38.77 -13.0625 20.29 -13.0625 1.25 C-9.15316448 -0.70466776 -4.29878963 0.02132072 0 0 Z M-2.0625 8.25 C-2.0625 21.78 -2.0625 35.31 -2.0625 49.25 C8.80737982 49.61667937 8.80737982 49.61667937 16.9375 44.25 C21.1131833 39.55383493 21.29768231 34.18684487 21.375 28.125 C21.3853125 27.44397217 21.395625 26.76294434 21.40625 26.0612793 C21.30408571 20.23011042 19.81449583 16.12699583 15.6875 12 C9.70921991 8.19563994 5.08774031 8.25 -2.0625 8.25 Z " fill="#010101" transform="translate(13.0625,216.75)"/>
<path d="M0 0 C0.33 0.66 0.66 1.32 1 2 C1.56847656 1.7834375 2.13695312 1.566875 2.72265625 1.34375 C7.58989919 -0.41138268 11.77155862 -1.7891987 17 -1 C19.31360886 0.47415786 21.01743881 2.06579397 23 4 C23.763125 3.360625 24.52625 2.72125 25.3125 2.0625 C29.57257515 -1.20686 33.28216027 -1.40824534 38.48828125 -1.33984375 C42.75109049 -0.76307174 44.21376817 0.7261776 47 4 C48.72300698 8.86567464 49.23945297 13.10372904 49.1953125 18.24609375 C49.1924826 18.90207047 49.18965271 19.55804718 49.18673706 20.23390198 C49.17565984 22.30196409 49.15058063 24.36957173 49.125 26.4375 C49.11495402 27.85090515 49.10583102 29.26431717 49.09765625 30.67773438 C49.07576184 34.11863394 49.04132051 37.55927252 49 41 C45.7 41 42.4 41 39 41 C38.970271 39.75911621 38.970271 39.75911621 38.93994141 38.49316406 C38.84468788 34.74512194 38.73500891 30.99763683 38.625 27.25 C38.5940625 25.94804687 38.563125 24.64609375 38.53125 23.3046875 C38.47324219 21.42910156 38.47324219 21.42910156 38.4140625 19.515625 C38.3826416 18.36352539 38.3512207 17.21142578 38.31884766 16.02441406 C38.01598825 13.15165578 37.4911762 11.43820389 36 9 C32.58343976 8.83322718 32.58343976 8.83322718 29 9 C25.47198202 12.52801798 25.85548701 17.16857614 25.68359375 21.95703125 C25.62075195 23.62475586 25.62075195 23.62475586 25.55664062 25.32617188 C25.51732422 26.47666016 25.47800781 27.62714844 25.4375 28.8125 C25.37272461 30.56723633 25.37272461 30.56723633 25.30664062 32.35742188 C25.20081721 35.23817031 25.09873175 38.11900123 25 41 C21.7 41 18.4 41 15 41 C14.98018066 40.20827393 14.96036133 39.41654785 14.93994141 38.60083008 C14.8445284 35.0043924 14.73491409 31.40852249 14.625 27.8125 C14.5940625 26.56662109 14.563125 25.32074219 14.53125 24.03710938 C14.49257813 22.83505859 14.45390625 21.63300781 14.4140625 20.39453125 C14.3826416 19.28956299 14.3512207 18.18459473 14.31884766 17.04614258 C14.00122818 14.01173354 13.27753965 11.75455478 12 9 C8.58357241 8.74984127 8.58357241 8.74984127 5 9 C2.64245766 12.53631352 2.71245236 14.1861915 2.62109375 18.3828125 C2.58693359 19.63191406 2.55277344 20.88101563 2.51757812 22.16796875 C2.49115234 23.47378906 2.46472656 24.77960938 2.4375 26.125 C2.37786127 28.71103687 2.31428253 31.29698695 2.24609375 33.8828125 C2.22216553 35.03152832 2.1982373 36.18024414 2.17358398 37.36376953 C2 40 2 40 1 41 C-0.68608966 41.07205511 -2.37500659 41.08386068 -4.0625 41.0625 C-4.98160156 41.05347656 -5.90070312 41.04445313 -6.84765625 41.03515625 C-7.55792969 41.02355469 -8.26820313 41.01195312 -9 41 C-9.1674126 35.48259702 -9.32799286 29.96505413 -9.48217773 24.44726562 C-9.53562556 22.56928117 -9.59095705 20.69134937 -9.64819336 18.81347656 C-9.7300268 16.11795404 -9.80513683 13.42231625 -9.87890625 10.7265625 C-9.90594131 9.88380768 -9.93297638 9.04105286 -9.96083069 8.17276001 C-10.11387171 2.22774341 -10.11387171 2.22774341 -9 0 C-5.49270578 -1.16909807 -3.55692677 -0.85056945 0 0 Z " fill="#010101" transform="translate(558,233)"/>
<path d="M0 0 C1.80868813 0.00333092 1.80868813 0.00333092 3.65391541 0.00672913 C4.31730423 0.0065831 4.98069305 0.00643707 5.66418457 0.00628662 C7.86644207 0.00698571 10.06861596 0.01477787 12.27085876 0.02259827 C13.79400588 0.02446246 15.31715359 0.02588636 16.84030151 0.02688599 C20.85657903 0.03071105 24.87282059 0.04054124 28.88908386 0.05158997 C32.98443617 0.06180433 37.07979427 0.06638366 41.17515564 0.07142639 C49.21618779 0.08216352 57.25719069 0.0992398 65.29820251 0.12025452 C62.10322509 3.75455676 58.50653662 4.13708831 53.92320251 4.99525452 C35.59914986 8.77263727 18.48416281 16.55098142 5.29820251 30.12025452 C4.63820251 30.78025452 3.97820251 31.44025452 3.29820251 32.12025452 C2.63820251 32.12025452 1.97820251 32.12025452 1.29820251 32.12025452 C1.05328064 32.66939514 0.80835876 33.21853577 0.55601501 33.78431702 C-0.96766101 36.61400107 -2.83999686 38.96848717 -4.82679749 41.49525452 C-8.301213 46.06596619 -11.36924364 50.6901988 -14.20179749 55.68275452 C-14.53969299 56.27814026 -14.8775885 56.873526 -15.22572327 57.48695374 C-16.62861045 60.01070066 -17.78613968 62.37328111 -18.70179749 65.12025452 C-19.36179749 65.12025452 -20.02179749 65.12025452 -20.70179749 65.12025452 C-19.38576018 58.00785411 -17.68617112 51.07085442 -15.73304749 44.10853577 C-15.45207214 43.09607285 -15.1710968 42.08360992 -14.88160706 41.04046631 C-13.99169916 37.83694926 -13.09680931 34.6348489 -12.20179749 31.43275452 C-11.60121271 29.27333949 -11.00094946 27.11383502 -10.40101624 24.95423889 C-7.69267048 15.21396356 -7.69267048 15.21396356 -6.36756897 10.49784851 C-5.94269221 8.98053446 -5.52244934 7.46190997 -5.10829163 5.94163513 C-3.51455183 0.15642946 -3.51455183 0.15642946 0 0 Z " fill="#000000" transform="translate(326.70179748535156,35.87974548339844)"/>
<path d="M0 0 C0.66 0 1.32 0 2 0 C0.6249758 7.43292776 -1.1655468 14.70099154 -3.15234375 21.9921875 C-3.45314346 23.10054962 -3.75394318 24.20891174 -4.06385803 25.3508606 C-4.69654059 27.67582423 -5.33112562 30.00027092 -5.9675293 32.32421875 C-6.93970466 35.88307061 -7.89868514 39.44532025 -8.85742188 43.0078125 C-9.47575537 45.27365792 -10.09486862 47.53929071 -10.71484375 49.8046875 C-10.9993187 50.86823456 -11.28379364 51.93178162 -11.57688904 53.02755737 C-11.85049759 54.01603668 -12.12410614 55.00451599 -12.40600586 56.02294922 C-12.64202011 56.88991425 -12.87803436 57.75687927 -13.12120056 58.65011597 C-14.12393591 61.331401 -14.91754659 63.01356262 -17 65 C-19.86637878 65.48101807 -19.86637878 65.48101807 -23.39916992 65.45410156 C-24.36543053 65.45497772 -24.36543053 65.45497772 -25.35121155 65.45587158 C-27.47818089 65.45308714 -29.60374462 65.42198214 -31.73046875 65.390625 C-33.20590957 65.38316379 -34.6813603 65.37747029 -36.15681458 65.37347412 C-40.03851729 65.35820801 -43.91962045 65.3189187 -47.80108643 65.2746582 C-51.76249073 65.23372602 -55.72399201 65.21546755 -59.68554688 65.1953125 C-67.45730446 65.1524246 -75.2285682 65.08416248 -83 65 C-83 64.34 -83 63.68 -83 63 C-82.4423999 62.87995605 -81.8847998 62.75991211 -81.31030273 62.63623047 C-58.49105416 57.65279724 -39.99892894 50.47635788 -23 34 C-22.40058594 33.4740625 -21.80117188 32.948125 -21.18359375 32.40625 C-11.72554255 23.80403174 -5.25931448 11.48069868 0 0 Z " fill="#010101" transform="translate(454,124)"/>
<path d="M0 0 C22.44 0 44.88 0 68 0 C67.35209485 4.53533603 66.71548927 8.45676392 65.52539062 12.79589844 C65.22838257 13.886828 64.93137451 14.97775757 64.62536621 16.10174561 C64.30555786 17.25926331 63.98574951 18.41678101 63.65625 19.609375 C63.32709595 20.81313782 62.99794189 22.01690063 62.65881348 23.25714111 C61.78767859 26.43951445 60.91280184 29.62082774 60.03619385 32.80169678 C59.32072543 35.4014085 58.60906843 38.00215628 57.89759064 40.60296249 C56.42729978 45.97697371 54.95410762 51.35019606 53.47460938 56.72167969 C53.2133728 57.67097351 52.95213623 58.62026733 52.6829834 59.59832764 C52.16712036 61.41233074 51.59638259 63.21085223 51 65 C50.34 65 49.68 65 49 65 C49.03480469 64.175 49.06960938 63.35 49.10546875 62.5 C49.49571235 45.8496065 46.89362027 29.32231133 34.9609375 16.73828125 C26.66168374 9.38137304 15.51428283 5.02011921 4.75 2.8125 C3.5125 2.544375 2.275 2.27625 1 2 C0.67 1.34 0.34 0.68 0 0 Z " fill="#000000" transform="translate(412,36)"/>
<path d="M0 0 C2 2 2 2 2.08984375 4.984375 C2.03957031 6.22703125 1.98929687 7.4696875 1.9375 8.75 C1.6757339 22.84627458 4.90715011 36.96048685 14.875 47.4375 C24.52978581 56.22117731 36.37618042 60.22275969 49 63 C49 63.66 49 64.32 49 65 C27.22 65 5.44 65 -17 65 C-16.35209485 60.46466397 -15.71548927 56.54323608 -14.52539062 52.20410156 C-14.22838257 51.113172 -13.93137451 50.02224243 -13.62536621 48.89825439 C-13.30555786 47.74073669 -12.98574951 46.58321899 -12.65625 45.390625 C-12.32709595 44.18686218 -11.99794189 42.98309937 -11.65881348 41.74285889 C-10.78767859 38.56048555 -9.91280184 35.37917226 -9.03619385 32.19830322 C-8.32072543 29.5985915 -7.60906843 26.99784372 -6.89759064 24.39703751 C-5.42729978 19.02302629 -3.95410762 13.64980394 -2.47460938 8.27832031 C-2.2133728 7.32902649 -1.95213623 6.37973267 -1.6829834 5.40167236 C-1.16712036 3.58766926 -0.59638259 1.78914777 0 0 Z " fill="#000000" transform="translate(299,124)"/>
<path d="M0 0 C1.31677734 -0.0309375 1.31677734 -0.0309375 2.66015625 -0.0625 C8.83008027 -0.09917117 15.16895624 0.26661906 19.93579102 4.70239258 C24.37602975 9.89540099 24.78687327 13.45807725 24.71484375 20.1328125 C24.0371337 26.34904949 21.1328926 29.79132317 16.4375 33.6875 C10.9718044 36.45694844 4.33444211 36.02297363 -1.625 36.25 C-1.625 43.18 -1.625 50.11 -1.625 57.25 C-4.925 57.25 -8.225 57.25 -11.625 57.25 C-11.625 38.77 -11.625 20.29 -11.625 1.25 C-8.05373846 -0.53563077 -3.93298201 0.02250633 0 0 Z M-1.625 8.25 C-1.65183987 11.22922593 -1.67176037 14.20821295 -1.6875 17.1875 C-1.69587891 18.03763672 -1.70425781 18.88777344 -1.71289062 19.76367188 C-1.71611328 20.57255859 -1.71933594 21.38144531 -1.72265625 22.21484375 C-1.72789307 22.9637085 -1.73312988 23.71257324 -1.73852539 24.48413086 C-1.81841752 26.27667739 -1.81841752 26.27667739 -0.625 27.25 C3.49205068 27.52447005 6.37956442 27.61787837 10.25 26.1875 C13.29533941 23.41086701 13.83367801 21.30991495 14.375 17.25 C13.56502228 13.38730036 13.56502228 13.38730036 11.375 10.25 C7.05352067 7.99104489 3.16724083 8.19889791 -1.625 8.25 Z " fill="#010101" transform="translate(353.625,216.75)"/>
<path d="M0 0 C5.16201544 4.61362581 7.43451591 9.19338522 8.25 16.125 C8.65925345 23.49156209 6.28679947 29.23176907 1.625 34.875 C-3.67668125 39.1668372 -7.7922845 40.5303679 -14.54296875 40.27734375 C-21.07693656 39.53980525 -24.73591761 36.71793103 -28.73828125 31.81640625 C-33.0566744 25.59952448 -32.65488798 19.39443142 -32 12 C-30.38456606 5.84780847 -26.32528209 1.37501431 -21 -2 C-14.03333543 -4.34113982 -6.27155621 -3.73881236 0 0 Z M-20 10 C-22.08075525 14.1615105 -21.33215664 19.45657172 -21 24 C-19.80916434 27.45342343 -19.0180025 29.19261871 -16.1875 31.4375 C-13.01000167 32.254571 -11.12020071 32.0400669 -8 31 C-4.14097532 26.93237939 -3.24168839 22.89538316 -2.8984375 17.46875 C-3.09104099 12.78700354 -4.57470393 9.47280594 -7.875 6.0625 C-13.56742431 3.21628785 -16.12143695 5.47500978 -20 10 Z " fill="#010101" transform="translate(507,235)"/>
<path d="M0 0 C4.05099986 2.9369749 6.62637374 5.85290083 7.5 10.8125 C7.58197613 13.12898688 7.60747793 15.44770889 7.59765625 17.765625 C7.5962413 18.42584656 7.59482635 19.08606812 7.59336853 19.76629639 C7.58779245 21.86507794 7.57524447 23.96375095 7.5625 26.0625 C7.5574819 27.48958179 7.55291954 28.91666525 7.54882812 30.34375 C7.53783088 33.83336832 7.5205828 37.32292356 7.5 40.8125 C4.53 40.8125 1.56 40.8125 -1.5 40.8125 C-1.5 39.8225 -1.5 38.8325 -1.5 37.8125 C-2.469375 38.4725 -3.43875 39.1325 -4.4375 39.8125 C-8.76298863 42.26419396 -12.62172195 42.69218949 -17.5 41.8125 C-21.88773175 39.61863412 -24.59334197 37.36729418 -26.5 32.8125 C-27.06872801 27.59915994 -26.4156441 24.18596615 -23.5 19.8125 C-18.04450216 14.65189394 -10.67101495 14.10917668 -3.5 12.8125 C-3.83 11.1625 -4.16 9.5125 -4.5 7.8125 C-12.915 8.3075 -12.915 8.3075 -21.5 8.8125 C-22.16 6.5025 -22.82 4.1925 -23.5 1.8125 C-15.85968062 -1.71380125 -8.09962441 -2.74808685 0 0 Z M-10.75 22.3125 C-11.9875 22.8075 -13.225 23.3025 -14.5 23.8125 C-14.5 26.7825 -14.5 29.7525 -14.5 32.8125 C-11.19432511 33.66637105 -11.19432511 33.66637105 -7.5 33.8125 C-4.55427395 31.64196501 -3.65939059 30.29067177 -2.5 26.8125 C-2.46079185 24.81288436 -2.45556653 22.81200636 -2.5 20.8125 C-6.05046666 20.8125 -7.60239242 21.05345697 -10.75 22.3125 Z M-15.5 25.8125 C-15.5 27.4625 -15.5 29.1125 -15.5 30.8125 C-15.17 30.8125 -14.84 30.8125 -14.5 30.8125 C-14.5 29.1625 -14.5 27.5125 -14.5 25.8125 C-14.83 25.8125 -15.16 25.8125 -15.5 25.8125 Z " fill="#010101" transform="translate(639.5,233.1875)"/>
<path d="M0 0 C-14.27259212 50.22471038 -14.27259212 50.22471038 -28 58 C-30.48740485 58.76318103 -32.36960287 58.94520006 -35 59 C-36.59313215 54.22060354 -36.59313215 54.22060354 -36 51 C-33.56948436 48.21917873 -30.98449587 45.92483969 -28.125 43.58984375 C-25.62656478 41.14395821 -25.62656478 41.14395821 -26.19702148 37.7980957 C-27.02223577 33.8948246 -28.22527422 30.32144865 -29.72265625 26.640625 C-30.12006264 25.63403839 -30.12006264 25.63403839 -30.52549744 24.6071167 C-31.36401328 22.48515319 -32.21233775 20.36732147 -33.0625 18.25 C-33.91532093 16.11806797 -34.7658351 13.98532701 -35.61021423 11.85003662 C-36.13369256 10.52690708 -36.66212006 9.20572228 -37.19606018 7.88677979 C-38.30781106 5.08268574 -39 3.04945282 -39 0 C-37.39815374 -0.1352403 -35.79303374 -0.23210847 -34.1875 -0.3125 C-33.29417969 -0.37050781 -32.40085937 -0.42851562 -31.48046875 -0.48828125 C-29 0 -29 0 -27.40625 1.875 C-25.4304481 6.2656709 -23.85552709 10.75428845 -22.3125 15.3125 C-21.99216797 16.24384766 -21.67183594 17.17519531 -21.34179688 18.13476562 C-20.55610278 20.42148724 -19.7756848 22.70986781 -19 25 C-18.79318604 24.31373535 -18.58637207 23.6274707 -18.37329102 22.92041016 C-17.43822355 19.82137444 -16.50039705 16.72318048 -15.5625 13.625 C-15.23701172 12.54476562 -14.91152344 11.46453125 -14.57617188 10.3515625 C-14.26357422 9.3203125 -13.95097656 8.2890625 -13.62890625 7.2265625 C-13.34088135 6.27346191 -13.05285645 5.32036133 -12.75610352 4.33837891 C-12 2 -12 2 -11 0 C-6.94952424 -1.35015859 -4.2079832 -0.62084998 0 0 Z " fill="#010101" transform="translate(320,233)"/>
<path d="M0 0 C5.31800535 3.67195607 7.34613206 7.52473261 8.625 13.8125 C8.81427766 16.53518635 8.76664285 19.07407154 8.625 21.8125 C7.625 22.8125 7.625 22.8125 5.21655273 22.92602539 C4.17442627 22.92078857 3.1322998 22.91555176 2.05859375 22.91015625 C0.93388672 22.90693359 -0.19082031 22.90371094 -1.34960938 22.90039062 C-2.53361328 22.89201172 -3.71761719 22.88363281 -4.9375 22.875 C-6.12537109 22.87048828 -7.31324219 22.86597656 -8.53710938 22.86132812 C-11.48312226 22.84949675 -14.42903681 22.83301287 -17.375 22.8125 C-16.75745741 24.12852523 -16.13071258 25.44023556 -15.5 26.75 C-15.15195312 27.48089844 -14.80390625 28.21179688 -14.4453125 28.96484375 C-13.5065023 30.97582459 -13.5065023 30.97582459 -11.375 31.8125 C-8.65739892 31.88431821 -5.96640612 31.90549506 -3.25 31.875 C-2.11884766 31.86823242 -2.11884766 31.86823242 -0.96484375 31.86132812 C0.89847127 31.84953499 2.76174555 31.83159942 4.625 31.8125 C6.671875 35.53125 6.671875 35.53125 6.25 38.0625 C6.04375 38.64 5.8375 39.2175 5.625 39.8125 C-1.74763187 42.49345704 -10.35124383 43.48503379 -17.75 40.375 C-23.12686615 37.2543971 -26.44941245 31.58926264 -28.375 25.8125 C-29.40491455 17.55629973 -26.86074291 10.84111782 -22.5625 3.875 C-16.26679126 -2.06095395 -7.97603303 -2.80638199 0 0 Z M-14.1875 8 C-15.73274292 10.22793259 -15.73274292 10.22793259 -17.375 14.8125 C-12.095 14.8125 -6.815 14.8125 -1.375 14.8125 C-2.90812767 10.49641204 -2.90812767 10.49641204 -5.375 6.8125 C-10.01017727 6.34488585 -10.01017727 6.34488585 -14.1875 8 Z " fill="#010101" transform="translate(761.375,233.1875)"/>
<path d="M0 0 C4.82403765 2.44864384 6.70330357 5.61622681 8.86328125 10.3515625 C10.25099078 14.86161847 9.86328125 18.35758698 9.86328125 23.3515625 C1.28328125 23.3515625 -7.29671875 23.3515625 -16.13671875 23.3515625 C-13.95612042 30.19982145 -13.95612042 30.19982145 -10.13671875 32.3515625 C-7.37016551 32.49402147 -4.71018569 32.53925695 -1.94921875 32.4765625 C-1.19962891 32.46753906 -0.45003906 32.45851563 0.32226562 32.44921875 C2.16940779 32.42568828 4.01638537 32.38981811 5.86328125 32.3515625 C6.52328125 34.3315625 7.18328125 36.3115625 7.86328125 38.3515625 C6.1357051 40.55902092 5.03810541 41.30465846 2.30078125 42.0390625 C-12.4963164 43.3842532 -12.4963164 43.3842532 -19.13671875 39.3515625 C-24.45484791 34.77797142 -26.56393054 29.99663947 -27.421875 23.0390625 C-27.84062875 16.1672061 -25.99560772 11.01930567 -22.13671875 5.3515625 C-16.29883559 -1.01173014 -8.2228309 -2.49541121 0 0 Z M-13.44921875 9.1015625 C-15.43534074 11.44655562 -15.43534074 11.44655562 -16.13671875 15.3515625 C-11.18671875 15.3515625 -6.23671875 15.3515625 -1.13671875 15.3515625 C-1.46671875 13.3715625 -1.79671875 11.3915625 -2.13671875 9.3515625 C-6.22612386 6.62529243 -9.38379135 6.02502284 -13.44921875 9.1015625 Z " fill="#010101" transform="translate(409.13671875,232.6484375)"/>
<path d="M0 0 C3.74226854 1.67207743 7.20930924 3.93993723 8.72387695 7.88598633 C9.99094763 13.86812067 10.27064202 19.58312564 10.1875 25.6875 C10.18685547 26.59822266 10.18621094 27.50894531 10.18554688 28.44726562 C10.15532149 33.07174895 9.94275431 37.45215322 9 42 C5.7 42 2.4 42 -1 42 C-1.01981934 41.13721436 -1.03963867 40.27442871 -1.06005859 39.38549805 C-1.13819644 36.18163044 -1.22489082 32.97814106 -1.31738281 29.7746582 C-1.3556435 28.38868093 -1.39050156 27.00260535 -1.421875 25.61645508 C-1.46758699 23.6229836 -1.52658925 21.62983086 -1.5859375 19.63671875 C-1.63306885 17.83787231 -1.63306885 17.83787231 -1.68115234 16.00268555 C-1.78429494 12.82117294 -1.78429494 12.82117294 -4 10 C-8.56961334 9.43576346 -8.56961334 9.43576346 -12.69287109 11.12451172 C-14.60056768 13.86170357 -14.41952569 16.07050396 -14.4765625 19.3828125 C-14.5075 20.63191406 -14.5384375 21.88101563 -14.5703125 23.16796875 C-14.58835938 24.47378906 -14.60640625 25.77960938 -14.625 27.125 C-14.67575599 29.71101765 -14.73023248 32.29696593 -14.7890625 34.8828125 C-14.80662598 36.03152832 -14.82418945 37.18024414 -14.84228516 38.36376953 C-15 41 -15 41 -16 42 C-19.3 42 -22.6 42 -26 42 C-26 28.47 -26 14.94 -26 1 C-23.03 1 -20.06 1 -17 1 C-16.67 1.99 -16.34 2.98 -16 4 C-15.21625 3.34 -14.4325 2.68 -13.625 2 C-9.35976277 -0.84686855 -4.95141454 -0.69551642 0 0 Z " fill="#000000" transform="translate(205,232)"/>
<path d="M0 0 C4.67837083 3.26397965 7.13369282 5.51629791 8.44140625 11.0859375 C9.6875 18.98076923 9.6875 18.98076923 9.6875 22.875 C1.1075 22.875 -7.4725 22.875 -16.3125 22.875 C-15.12104812 29.41414431 -15.12104812 29.41414431 -12.703125 31.3046875 C-9.16022464 32.14988922 -5.67798035 32.08304107 -2.0625 32 C-0.94488281 31.98646484 -0.94488281 31.98646484 0.1953125 31.97265625 C2.02618059 31.94918358 3.85688238 31.91331525 5.6875 31.875 C6.1825 35.34 6.1825 35.34 6.6875 38.875 C0.09290328 42.39211825 -6.28922904 42.97145001 -13.62109375 41.37109375 C-19.50656771 39.42410331 -22.91034937 36.19580104 -26.125 30.875 C-28.62233825 24.31589898 -28.61273969 15.85398551 -25.75 9.4375 C-20.03467239 -0.19690939 -10.59667079 -3.59886932 0 0 Z M-14.75 9.1875 C-16.56381023 11.78913567 -16.56381023 11.78913567 -16.3125 14.875 C-11.3625 14.875 -6.4125 14.875 -1.3125 14.875 C-1.9725 12.565 -2.6325 10.255 -3.3125 7.875 C-7.59377093 5.73436454 -11.29572321 5.91036561 -14.75 9.1875 Z " fill="#010101" transform="translate(163.3125,233.125)"/>
<path d="M0 0 C4.93274428 4.11062024 6.48085093 7.87568112 7.08447266 14.20019531 C7.39869654 19.27783078 7.3523476 24.35233304 7.3125 29.4375 C7.30798828 30.54158203 7.30347656 31.64566406 7.29882812 32.78320312 C7.28715155 35.48049258 7.26922028 38.17775375 7.25 40.875 C3.62 40.875 -0.01 40.875 -3.75 40.875 C-3.76981934 40.04774414 -3.78963867 39.22048828 -3.81005859 38.36816406 C-3.90531212 34.62012194 -4.01499109 30.87263683 -4.125 27.125 C-4.1559375 25.82304687 -4.186875 24.52109375 -4.21875 23.1796875 C-4.25742187 21.92929688 -4.29609375 20.67890625 -4.3359375 19.390625 C-4.38306885 17.66247559 -4.38306885 17.66247559 -4.43115234 15.89941406 C-4.73401175 13.02665578 -5.2588238 11.31320389 -6.75 8.875 C-12.07170494 8.57937633 -12.07170494 8.57937633 -16.75 10.875 C-17.81886689 14.48100907 -17.93200783 18.08807515 -18.06640625 21.83203125 C-18.10830078 22.94384766 -18.15019531 24.05566406 -18.19335938 25.20117188 C-18.23267578 26.35166016 -18.27199219 27.50214844 -18.3125 28.6875 C-18.35568359 29.85732422 -18.39886719 31.02714844 -18.44335938 32.23242188 C-18.54918279 35.11317031 -18.65126825 37.99400123 -18.75 40.875 C-22.05 40.875 -25.35 40.875 -28.75 40.875 C-28.75 27.345 -28.75 13.815 -28.75 -0.125 C-25.78 -0.125 -22.81 -0.125 -19.75 -0.125 C-19.42 0.535 -19.09 1.195 -18.75 1.875 C-17.595 1.38 -16.44 0.885 -15.25 0.375 C-9.96881198 -1.58791944 -5.3736882 -2.19832699 0 0 Z " fill="#000000" transform="translate(684.75,233.125)"/>
<path d="M0 0 C1 1 1 1 1.0625 4.5625 C1.041875 5.696875 1.02125 6.83125 1 8 C0.36191406 8.13277344 -0.27617187 8.26554688 -0.93359375 8.40234375 C-2.17302734 8.66724609 -2.17302734 8.66724609 -3.4375 8.9375 C-4.26121094 9.11152344 -5.08492188 9.28554687 -5.93359375 9.46484375 C-7.97661204 9.80752994 -7.97661204 9.80752994 -9 11 C-9.36760731 13.32817964 -9.70241581 15.6618385 -10 18 C-7.36 18.33 -4.72 18.66 -2 19 C-2 21.64 -2 24.28 -2 27 C-4.97 27 -7.94 27 -11 27 C-11 37.89 -11 48.78 -11 60 C-14.3 60 -17.6 60 -21 60 C-21 49.11 -21 38.22 -21 27 C-22.65 26.67 -24.3 26.34 -26 26 C-26 23.69 -26 21.38 -26 19 C-24.35 18.67 -22.7 18.34 -21 18 C-21.0928125 16.453125 -21.0928125 16.453125 -21.1875 14.875 C-20.95731375 10.11781759 -19.95228936 7.02884973 -16.60546875 3.55078125 C-10.84807494 -1.53613126 -7.22113679 -1.18379292 0 0 Z " fill="#010101" transform="translate(475,214)"/>
<path d="M0 0 C0.39832031 1.21816406 0.79664062 2.43632812 1.20703125 3.69140625 C1.74202456 5.31515786 2.27718996 6.93885278 2.8125 8.5625 C3.07353516 9.36236328 3.33457031 10.16222656 3.60351562 10.98632812 C5.18660821 15.7746946 6.94180649 20.39533285 9 25 C9.16081055 24.42556152 9.32162109 23.85112305 9.48730469 23.25927734 C10.23062594 20.62796254 10.99015258 18.00158795 11.75 15.375 C12.00265625 14.47136719 12.2553125 13.56773437 12.515625 12.63671875 C14.0398343 7.4163019 15.69127268 3.33011706 19 -1 C21.97 -0.67 24.94 -0.34 28 0 C25.72626784 7.97353014 22.99646095 15.74273227 20.12890625 23.5168457 C19.36544099 25.58843749 18.60825071 27.66225255 17.8515625 29.73632812 C17.3675553 31.05482257 16.88319377 32.37318702 16.3984375 33.69140625 C15.96192871 34.87935791 15.52541992 36.06730957 15.07568359 37.29125977 C14 40 14 40 13 41 C11.31391034 41.07205511 9.62499341 41.08386068 7.9375 41.0625 C7.01839844 41.05347656 6.09929687 41.04445313 5.15234375 41.03515625 C4.44207031 41.02355469 3.73179688 41.01195312 3 41 C-5.55418341 18.31002151 -5.55418341 18.31002151 -9.0625 8.6875 C-9.63677734 7.11548828 -9.63677734 7.11548828 -10.22265625 5.51171875 C-11 3 -11 3 -11 0 C-6.93720525 -0.85035239 -4.02659396 -0.92604802 0 0 Z " fill="#010101" transform="translate(106,233)"/>
<path d="M0 0 C1.40378906 -0.02126953 1.40378906 -0.02126953 2.8359375 -0.04296875 C5.78618154 0.20081892 7.94864112 0.95637492 10.625 2.1875 C10.36938677 4.5306213 10.03229228 6.86593403 9.625 9.1875 C7.625 10.1875 7.625 10.1875 3.875 9.625 C-0.06896698 9.08816239 -2.75054528 9.33312782 -6.375 11.1875 C-9.40910329 14.32274007 -9.65795254 17.42113336 -9.875 21.625 C-9.70853528 25.87272038 -9.40247845 29.12491965 -6.3515625 32.23828125 C-1.78485454 34.43138408 3.70258689 33.57668054 8.625 33.1875 C10.6328125 36.921875 10.6328125 36.921875 10.5625 39.3125 C9.625 41.1875 9.625 41.1875 7.3984375 42.28125 C1.45985101 44.22174587 -5.02551745 44.16947497 -10.75 41.5625 C-16.15106061 38.43032756 -19.38590926 34.1113423 -21.375 28.1875 C-22.35280222 20.91059292 -21.62355905 14.74601065 -18.0078125 8.3203125 C-13.52260514 2.46164451 -7.2095406 0.04938042 0 0 Z " fill="#010101" transform="translate(719.375,231.8125)"/>
<path d="M0 0 C6.46153846 0.46153846 6.46153846 0.46153846 9 3 C9.680625 2.505 10.36125 2.01 11.0625 1.5 C14.59465009 -0.30365111 17.08636991 -0.23021353 21 0 C21 2.97 21 5.94 21 9 C20.37351562 9.15855469 19.74703125 9.31710938 19.1015625 9.48046875 C17.87566406 9.83044922 17.87566406 9.83044922 16.625 10.1875 C15.40683594 10.51814453 15.40683594 10.51814453 14.1640625 10.85546875 C11.20320162 12.42141142 11.00319828 13.84520542 10 17 C9.63879498 19.89555369 9.63879498 19.89555369 9.5859375 22.95703125 C9.52792969 24.62475586 9.52792969 24.62475586 9.46875 26.32617188 C9.42234375 28.0519043 9.42234375 28.0519043 9.375 29.8125 C9.31699219 31.56723633 9.31699219 31.56723633 9.2578125 33.35742188 C9.16375191 36.23802747 9.0807958 39.11899184 9 42 C5.37 42 1.74 42 -2 42 C-2.04934926 36.34001954 -2.08569529 30.68016364 -2.10986328 25.02001953 C-2.11993582 23.09356506 -2.13359443 21.16712592 -2.15087891 19.24072266 C-2.17507241 16.47554748 -2.18647036 13.710574 -2.1953125 10.9453125 C-2.20563507 10.0806839 -2.21595764 9.2160553 -2.22659302 8.32522583 C-2.22699106 6.21546479 -2.12265243 4.10619282 -2 2 C-1.34 1.34 -0.68 0.68 0 0 Z " fill="#000000" transform="translate(523,232)"/>
<path d="M0 0 C0 3.3 0 6.6 0 10 C-0.804375 10.12375 -1.60875 10.2475 -2.4375 10.375 C-3.283125 10.58125 -4.12875 10.7875 -5 11 C-5.33 11.66 -5.66 12.32 -6 13 C-6.99 13.33 -7.98 13.66 -9 14 C-10.05836661 17.17509982 -10.20243789 19.64282383 -10.31640625 22.98046875 C-10.35830078 24.14384766 -10.40019531 25.30722656 -10.44335938 26.50585938 C-10.48267578 27.72080078 -10.52199219 28.93574219 -10.5625 30.1875 C-10.60568359 31.41404297 -10.64886719 32.64058594 -10.69335938 33.90429688 C-10.7995309 36.93608381 -10.90157952 39.96795315 -11 43 C-14.63 43 -18.26 43 -22 43 C-22 29.47 -22 15.94 -22 2 C-15 1 -15 1 -13 2 C-13 2.99 -13 3.98 -13 5 C-12.46890625 4.72285156 -11.9378125 4.44570312 -11.390625 4.16015625 C-10.33101562 3.61681641 -10.33101562 3.61681641 -9.25 3.0625 C-8.55390625 2.70285156 -7.8578125 2.34320313 -7.140625 1.97265625 C-4.86203332 0.93731076 -2.53955388 0 0 0 Z " fill="#010101" transform="translate(74,231)"/>
<path d="M0 0 C0 2.97 0 5.94 0 9 C-0.63808594 9.26554688 -1.27617187 9.53109375 -1.93359375 9.8046875 C-2.75988281 10.15789062 -3.58617187 10.51109375 -4.4375 10.875 C-5.26121094 11.22304687 -6.08492188 11.57109375 -6.93359375 11.9296875 C-9.15746715 12.8244937 -9.15746715 12.8244937 -10 15 C-10.15411106 17.0307477 -10.24982453 19.06606421 -10.31640625 21.1015625 C-10.35830078 22.31328125 -10.40019531 23.525 -10.44335938 24.7734375 C-10.48267578 26.04445313 -10.52199219 27.31546875 -10.5625 28.625 C-10.60568359 29.90375 -10.64886719 31.1825 -10.69335938 32.5 C-10.79969886 35.66655348 -10.90172833 38.83318753 -11 42 C-14.63 42 -18.26 42 -22 42 C-22 28.47 -22 14.94 -22 1 C-19.03 1 -16.06 1 -13 1 C-12.67 1.99 -12.34 2.98 -12 4 C-10.700625 3.01 -10.700625 3.01 -9.375 2 C-5.78576537 -0.12695385 -4.07305202 -0.38790972 0 0 Z " fill="#000000" transform="translate(447,232)"/>
<path d="M0 0 C3.3 0 6.6 0 10 0 C10 13.53 10 27.06 10 41 C6.7 41 3.4 41 0 41 C0 27.47 0 13.94 0 0 Z " fill="#010101" transform="translate(80,233)"/>
<path d="M0 0 C2.25 1.375 2.25 1.375 4.25 4.375 C3.9258631 7.69740324 3.64223697 8.98276303 1.25 11.375 C-2.80261287 11.71990322 -4.29754176 11.67663882 -7.75 9.375 C-8.4375 5.75 -8.4375 5.75 -8.75 2.375 C-3.50476493 -0.79653748 -3.50476493 -0.79653748 0 0 Z " fill="#010101" transform="translate(86.75,216.625)"/>
<path d="M0 0 C9.24 0 18.48 0 28 0 C28 0.33 28 0.66 28 1 C18.76 1 9.52 1 0 1 C0 0.67 0 0.34 0 0 Z " fill="#000000" transform="translate(714,191)"/>
<path d="M0 0 C7.26 0 14.52 0 22 0 C22 0.33 22 0.66 22 1 C11.11 1.495 11.11 1.495 0 2 C0 1.34 0 0.68 0 0 Z " fill="#000000" transform="translate(148,257)"/>
<path d="M0 0 C6.93 0 13.86 0 21 0 C21 0.33 21 0.66 21 1 C14.07 1 7.14 1 0 1 C0 0.67 0 0.34 0 0 Z " fill="#000000" transform="translate(392,190)"/>
<path d="M0 0 C0.33 0 0.66 0 1 0 C1 6.6 1 13.2 1 20 C0.67 20 0.34 20 0 20 C0 13.4 0 6.8 0 0 Z " fill="#000000" transform="translate(177,237)"/>
<path d="M0 0 C6.6 0 13.2 0 20 0 C20 0.33 20 0.66 20 1 C13.4 1 6.8 1 0 1 C0 0.67 0 0.34 0 0 Z " fill="#000000" transform="translate(689,191)"/>
<path d="M0 0 C2.375 -0.1875 2.375 -0.1875 5 0 C5.66 0.99 6.32 1.98 7 3 C4.69 3 2.38 3 0 3 C0 2.01 0 1.02 0 0 Z " fill="#000000" transform="translate(81,229)"/>
<path d="M0 0 C0.33 0 0.66 0 1 0 C1 4.29 1 8.58 1 13 C0.67 13 0.34 13 0 13 C0 8.71 0 4.42 0 0 Z " fill="#000000" transform="translate(648,250)"/>
<path d="M0 0 C0.66 0.33 1.32 0.66 2 1 C1.01 2.485 1.01 2.485 0 4 C1.65 4 3.3 4 5 4 C5 4.33 5 4.66 5 5 C2.69 5 0.38 5 -2 5 C-1.34 3.35 -0.68 1.7 0 0 Z " fill="#000000" transform="translate(150,242)"/>
<path d="M0 0 C3.63 0 7.26 0 11 0 C11 0.33 11 0.66 11 1 C7.37 1 3.74 1 0 1 C0 0.67 0 0.34 0 0 Z " fill="#000000" transform="translate(376,190)"/>
<path d="M0 0 C0.33 0 0.66 0 1 0 C1 2.64 1 5.28 1 8 C0.67 8 0.34 8 0 8 C0 5.36 0 2.72 0 0 Z " fill="#000000" transform="translate(608,252)"/>
<path d="M0 0 C0.33 0 0.66 0 1 0 C1 2.64 1 5.28 1 8 C0.67 8 0.34 8 0 8 C0 5.36 0 2.72 0 0 Z " fill="#000000" transform="translate(340,248)"/>
<path d="M0 0 C1.98 0 3.96 0 6 0 C5.01 0.66 4.02 1.32 3 2 C2.01 1.67 1.02 1.34 0 1 C0 0.67 0 0.34 0 0 Z " fill="#000000" transform="translate(152,241)"/>
<path d="M0 0 C0.33 0 0.66 0 1 0 C1 2.31 1 4.62 1 7 C0.67 7 0.34 7 0 7 C0 4.69 0 2.38 0 0 Z " fill="#000000" transform="translate(693,255)"/>
<path d="M0 0 C0.33 0 0.66 0 1 0 C1 2.31 1 4.62 1 7 C0.67 7 0.34 7 0 7 C0 4.69 0 2.38 0 0 Z " fill="#000000" transform="translate(667,250)"/>
<path d="M0 0 C2.31 0 4.62 0 7 0 C7 0.33 7 0.66 7 1 C4.69 1 2.38 1 0 1 C0 0.67 0 0.34 0 0 Z " fill="#000000" transform="translate(337,190)"/>
<path d="M0 0 C2.31 0 4.62 0 7 0 C7 0.33 7 0.66 7 1 C4.69 1 2.38 1 0 1 C0 0.67 0 0.34 0 0 Z " fill="#000000" transform="translate(380,34)"/>
<path d="M0 0 C0.33 0 0.66 0 1 0 C1 1.98 1 3.96 1 6 C0.67 6 0.34 6 0 6 C0 4.02 0 2.04 0 0 Z " fill="#000000" transform="translate(533,249)"/>
<path d="M0 0 C0.33 0 0.66 0 1 0 C1 1.98 1 3.96 1 6 C0.67 6 0.34 6 0 6 C0 4.02 0 2.04 0 0 Z " fill="#000000" transform="translate(78,237)"/>
<path d="M0 0 C0.33 0 0.66 0 1 0 C1 1.98 1 3.96 1 6 C0.67 6 0.34 6 0 6 C0 4.02 0 2.04 0 0 Z " fill="#000000" transform="translate(97,122)"/>
<path d="M0 0 C0.33 0.99 0.66 1.98 1 3 C0.34 3.66 -0.32 4.32 -1 5 C-0.67 3.35 -0.34 1.7 0 0 Z " fill="#000000" transform="translate(141,112)"/>
<path d="M0 0 C1.65 0 3.3 0 5 0 C5 0.33 5 0.66 5 1 C3.35 1 1.7 1 0 1 C0 0.67 0 0.34 0 0 Z " fill="#000000" transform="translate(182,275)"/>
<path d="M0 0 C1.98 0.99 1.98 0.99 4 2 C2.68 2 1.36 2 0 2 C0 1.34 0 0.68 0 0 Z " fill="#000000" transform="translate(630,241)"/>
<path d="M0 0 C0.66 0.33 1.32 0.66 2 1 C1.01 1.66 0.02 2.32 -1 3 C-0.67 2.01 -0.34 1.02 0 0 Z " fill="#000000" transform="translate(139,237)"/>
<path d="M0 0 C0.99 0.33 1.98 0.66 3 1 C2.34 1 1.68 1 1 1 C0.67 1.66 0.34 2.32 0 3 C0 2.01 0 1.02 0 0 Z " fill="#000000" transform="translate(253,226)"/>
<path d="M0 0 C1.65 0 3.3 0 5 0 C5 0.33 5 0.66 5 1 C3.35 1 1.7 1 0 1 C0 0.67 0 0.34 0 0 Z " fill="#000000" transform="translate(288,190)"/>
<path d="M0 0 C4 1 4 1 4 1 Z " fill="#000000" transform="translate(111,275)"/>
<path d="M0 0 C1 4 1 4 1 4 Z " fill="#000000" transform="translate(177,267)"/>
<path d="M0 0 C0.66 0 1.32 0 2 0 C2 0.66 2 1.32 2 2 C1.34 2 0.68 2 0 2 C0 1.34 0 0.68 0 0 Z " fill="#000000" transform="translate(745,257)"/>
<path d="M0 0 C4 1 4 1 4 1 Z " fill="#000000" transform="translate(623,242)"/>
<path d="M0 0 C0.66 0.66 1.32 1.32 2 2 C1.01 1.67 0.02 1.34 -1 1 C-0.67 0.67 -0.34 0.34 0 0 Z " fill="#000000" transform="translate(711,190)"/>
<path d="M0 0 C0.66 0 1.32 0 2 0 C2 0.66 2 1.32 2 2 C1.34 2 0.68 2 0 2 C0 1.34 0 0.68 0 0 Z " fill="#000000" transform="translate(565,109)"/>
<path d="M0 0 C1 4 1 4 1 4 Z " fill="#000000" transform="translate(460,92)"/>
<path d="M0 0 C3 1 3 1 3 1 Z " fill="#000000" transform="translate(56,275)"/>
<path d="" fill="#000000" transform="translate(0,0)"/>
<path d="M0 0 C0.99 0.495 0.99 0.495 2 1 C1.01 1.495 1.01 1.495 0 2 C0 1.34 0 0.68 0 0 Z " fill="#000000" transform="translate(562,243)"/>
<path d="M0 0 C3 1 3 1 3 1 Z " fill="#000000" transform="translate(564,242)"/>
<path d="M0 0 C3 1 3 1 3 1 Z " fill="#000000" transform="translate(197,242)"/>
<path d="M0 0 C3 1 3 1 3 1 Z " fill="#000000" transform="translate(401,241)"/>
<path d="" fill="#000000" transform="translate(0,0)"/>
<path d="" fill="#000000" transform="translate(0,0)"/>
<path d="" fill="#000000" transform="translate(0,0)"/>
<path d="M0 0 C3 1 3 1 3 1 Z " fill="#000000" transform="translate(422,190)"/>
<path d="M0 0 C0.99 0.495 0.99 0.495 2 1 C1.01 1.495 1.01 1.495 0 2 C0 1.34 0 0.68 0 0 Z " fill="#000000" transform="translate(53,112)"/>
<path d="" fill="#000000" transform="translate(0,0)"/>
<path d="M0 0 C3 1 3 1 3 1 Z " fill="#000000" transform="translate(206,90)"/>
<path d="M0 0 C2 1 2 1 2 1 Z " fill="#000000" transform="translate(84,275)"/>
<path d="" fill="#000000" transform="translate(0,0)"/>
<path d="" fill="#000000" transform="translate(0,0)"/>
<path d="" fill="#000000" transform="translate(0,0)"/>
<path d="" fill="#000000" transform="translate(0,0)"/>
<path d="" fill="#000000" transform="translate(0,0)"/>
<path d="" fill="#000000" transform="translate(0,0)"/>
<path d="" fill="#000000" transform="translate(0,0)"/>
<path d="" fill="#000000" transform="translate(0,0)"/>
<path d="" fill="#000000" transform="translate(0,0)"/>
<path d="" fill="#000000" transform="translate(0,0)"/>
<path d="" fill="#000000" transform="translate(0,0)"/>
<path d="M0 0 C2 1 2 1 2 1 Z " fill="#000000" transform="translate(159,246)"/>
<path d="" fill="#000000" transform="translate(0,0)"/>
<path d="" fill="#000000" transform="translate(0,0)"/>
<path d="" fill="#000000" transform="translate(0,0)"/>
<path d="M0 0 C2 1 2 1 2 1 Z " fill="#000000" transform="translate(442,243)"/>
<path d="M0 0 C2 1 2 1 2 1 Z " fill="#000000" transform="translate(587,242)"/>
<path d="M0 0 C2 1 2 1 2 1 Z " fill="#000000" transform="translate(465,242)"/>
<path d="M0 0 C2 1 2 1 2 1 Z " fill="#000000" transform="translate(397,242)"/>
<path d="M0 0 C2 1 2 1 2 1 Z " fill="#000000" transform="translate(750,241)"/>
<path d="" fill="#000000" transform="translate(0,0)"/>
<path d="" fill="#000000" transform="translate(0,0)"/>
<path d="" fill="#000000" transform="translate(0,0)"/>
<path d="" fill="#000000" transform="translate(0,0)"/>
<path d="M0 0 C2 1 2 1 2 1 Z " fill="#000000" transform="translate(467,208)"/>
<path d="M0 0 C2 1 2 1 2 1 Z " fill="#000000" transform="translate(464,208)"/>
<path d="M0 0 C2 1 2 1 2 1 Z " fill="#000000" transform="translate(684,191)"/>
<path d="M0 0 C2 1 2 1 2 1 Z " fill="#000000" transform="translate(680,191)"/>
<path d="M0 0 C2 1 2 1 2 1 Z " fill="#000000" transform="translate(263,187)"/>
<path d="M0 0 C2 1 2 1 2 1 Z " fill="#000000" transform="translate(53,187)"/>
<path d="" fill="#000000" transform="translate(0,0)"/>
<path d="M0 0 C2 1 2 1 2 1 Z " fill="#000000" transform="translate(176,143)"/>
<path d="" fill="#000000" transform="translate(0,0)"/>
<path d="" fill="#000000" transform="translate(0,0)"/>
<path d="" fill="#000000" transform="translate(0,0)"/>
<path d="" fill="#000000" transform="translate(0,0)"/>
<path d="" fill="#000000" transform="translate(0,0)"/>
<path d="" fill="#000000" transform="translate(0,0)"/>
<path d="" fill="#000000" transform="translate(0,0)"/>
<path d="" fill="#000000" transform="translate(0,0)"/>
<path d="" fill="#000000" transform="translate(0,0)"/>
<path d="" fill="#000000" transform="translate(0,0)"/>
<path d="" fill="#000000" transform="translate(0,0)"/>
<path d="" fill="#000000" transform="translate(0,0)"/>
<path d="" fill="#000000" transform="translate(0,0)"/>
<path d="" fill="#000000" transform="translate(0,0)"/>
<path d="" fill="#000000" transform="translate(0,0)"/>
<path d="" fill="#000000" transform="translate(0,0)"/>
<path d="" fill="#000000" transform="translate(0,0)"/>
<path d="" fill="#000000" transform="translate(0,0)"/>
<path d="" fill="#000000" transform="translate(0,0)"/>
<path d="" fill="#000000" transform="translate(0,0)"/>
<path d="" fill="#000000" transform="translate(0,0)"/>
<path d="" fill="#000000" transform="translate(0,0)"/>
<path d="" fill="#000000" transform="translate(0,0)"/>
<path d="" fill="#000000" transform="translate(0,0)"/>
<path d="" fill="#000000" transform="translate(0,0)"/>
<path d="" fill="#000000" transform="translate(0,0)"/>
<path d="" fill="#000000" transform="translate(0,0)"/>
<path d="" fill="#000000" transform="translate(0,0)"/>
<path d="" fill="#000000" transform="translate(0,0)"/>
<path d="" fill="#000000" transform="translate(0,0)"/>
<path d="" fill="#000000" transform="translate(0,0)"/>
<path d="" fill="#000000" transform="translate(0,0)"/>
<path d="" fill="#000000" transform="translate(0,0)"/>
<path d="" fill="#000000" transform="translate(0,0)"/>
<path d="" fill="#000000" transform="translate(0,0)"/>
<path d="" fill="#000000" transform="translate(0,0)"/>
<path d="" fill="#000000" transform="translate(0,0)"/>
<path d="" fill="#000000" transform="translate(0,0)"/>
<path d="" fill="#000000" transform="translate(0,0)"/>
<path d="" fill="#000000" transform="translate(0,0)"/>
<path d="" fill="#000000" transform="translate(0,0)"/>
<path d="" fill="#000000" transform="translate(0,0)"/>
<path d="" fill="#000000" transform="translate(0,0)"/>
<path d="" fill="#000000" transform="translate(0,0)"/>
<path d="" fill="#000000" transform="translate(0,0)"/>
<path d="" fill="#000000" transform="translate(0,0)"/>
<path d="" fill="#000000" transform="translate(0,0)"/>
<path d="" fill="#000000" transform="translate(0,0)"/>
<path d="" fill="#000000" transform="translate(0,0)"/>
<path d="" fill="#000000" transform="translate(0,0)"/>
<path d="" fill="#000000" transform="translate(0,0)"/>
<path d="" fill="#000000" transform="translate(0,0)"/>
<path d="" fill="#000000" transform="translate(0,0)"/>
<path d="" fill="#000000" transform="translate(0,0)"/>
<path d="" fill="#000000" transform="translate(0,0)"/>
<path d="" fill="#000000" transform="translate(0,0)"/>
<path d="" fill="#000000" transform="translate(0,0)"/>
<path d="" fill="#000000" transform="translate(0,0)"/>
<path d="" fill="#000000" transform="translate(0,0)"/>
<path d="" fill="#000000" transform="translate(0,0)"/>
<path d="" fill="#000000" transform="translate(0,0)"/>
<path d="" fill="#000000" transform="translate(0,0)"/>
<path d="" fill="#000000" transform="translate(0,0)"/>
<path d="" fill="#000000" transform="translate(0,0)"/>
<path d="" fill="#000000" transform="translate(0,0)"/>
<path d="" fill="#000000" transform="translate(0,0)"/>
<path d="" fill="#000000" transform="translate(0,0)"/>
<path d="" fill="#000000" transform="translate(0,0)"/>
<path d="" fill="#000000" transform="translate(0,0)"/>
<path d="" fill="#000000" transform="translate(0,0)"/>
<path d="" fill="#000000" transform="translate(0,0)"/>
<path d="" fill="#000000" transform="translate(0,0)"/>
<path d="" fill="#000000" transform="translate(0,0)"/>
<path d="" fill="#000000" transform="translate(0,0)"/>
<path d="" fill="#000000" transform="translate(0,0)"/>
<path d="" fill="#000000" transform="translate(0,0)"/>
<path d="" fill="#000000" transform="translate(0,0)"/>
<path d="" fill="#000000" transform="translate(0,0)"/>
<path d="" fill="#000000" transform="translate(0,0)"/>
<path d="" fill="#000000" transform="translate(0,0)"/>
<path d="" fill="#000000" transform="translate(0,0)"/>
<path d="" fill="#000000" transform="translate(0,0)"/>
<path d="" fill="#000000" transform="translate(0,0)"/>
<path d="" fill="#000000" transform="translate(0,0)"/>
<path d="" fill="#000000" transform="translate(0,0)"/>
<path d="" fill="#000000" transform="translate(0,0)"/>
<path d="" fill="#000000" transform="translate(0,0)"/>
<path d="" fill="#000000" transform="translate(0,0)"/>
<path d="" fill="#000000" transform="translate(0,0)"/>
<path d="" fill="#000000" transform="translate(0,0)"/>
<path d="" fill="#000000" transform="translate(0,0)"/>
<path d="" fill="#000000" transform="translate(0,0)"/>
<path d="" fill="#000000" transform="translate(0,0)"/>
<path d="" fill="#000000" transform="translate(0,0)"/>
<path d="" fill="#000000" transform="translate(0,0)"/>
<path d="" fill="#000000" transform="translate(0,0)"/>
<path d="" fill="#000000" transform="translate(0,0)"/>
<path d="" fill="#000000" transform="translate(0,0)"/>
<path d="" fill="#000000" transform="translate(0,0)"/>
<path d="" fill="#000000" transform="translate(0,0)"/>
<path d="" fill="#000000" transform="translate(0,0)"/>
<path d="" fill="#000000" transform="translate(0,0)"/>
<path d="" fill="#000000" transform="translate(0,0)"/>
<path d="" fill="#000000" transform="translate(0,0)"/>
<path d="" fill="#000000" transform="translate(0,0)"/>
<path d="" fill="#000000" transform="translate(0,0)"/>
<path d="" fill="#000000" transform="translate(0,0)"/>
<path d="" fill="#000000" transform="translate(0,0)"/>
<path d="" fill="#000000" transform="translate(0,0)"/>
<path d="" fill="#000000" transform="translate(0,0)"/>
<path d="" fill="#000000" transform="translate(0,0)"/>
<path d="" fill="#000000" transform="translate(0,0)"/>
<path d="" fill="#000000" transform="translate(0,0)"/>
<path d="" fill="#000000" transform="translate(0,0)"/>
<path d="" fill="#000000" transform="translate(0,0)"/>
<path d="" fill="#000000" transform="translate(0,0)"/>
<path d="" fill="#000000" transform="translate(0,0)"/>
<path d="" fill="#000000" transform="translate(0,0)"/>
<path d="" fill="#000000" transform="translate(0,0)"/>
<path d="" fill="#000000" transform="translate(0,0)"/>
<path d="" fill="#000000" transform="translate(0,0)"/>
<path d="" fill="#000000" transform="translate(0,0)"/>
<path d="" fill="#000000" transform="translate(0,0)"/>
<path d="" fill="#000000" transform="translate(0,0)"/>
<path d="" fill="#000000" transform="translate(0,0)"/>
<path d="" fill="#000000" transform="translate(0,0)"/>
<path d="" fill="#000000" transform="translate(0,0)"/>
<path d="" fill="#000000" transform="translate(0,0)"/>
<path d="" fill="#000000" transform="translate(0,0)"/>
<path d="" fill="#000000" transform="translate(0,0)"/>
<path d="" fill="#000000" transform="translate(0,0)"/>
<path d="" fill="#000000" transform="translate(0,0)"/>
<path d="" fill="#000000" transform="translate(0,0)"/>
<path d="" fill="#000000" transform="translate(0,0)"/>
<path d="" fill="#000000" transform="translate(0,0)"/>
<path d="" fill="#000000" transform="translate(0,0)"/>
<path d="" fill="#000000" transform="translate(0,0)"/>
<path d="" fill="#000000" transform="translate(0,0)"/>
<path d="" fill="#000000" transform="translate(0,0)"/>
<path d="" fill="#000000" transform="translate(0,0)"/>
<path d="" fill="#000000" transform="translate(0,0)"/>
<path d="" fill="#000000" transform="translate(0,0)"/>
<path d="" fill="#000000" transform="translate(0,0)"/>
<path d="" fill="#000000" transform="translate(0,0)"/>
<path d="" fill="#000000" transform="translate(0,0)"/>
<path d="" fill="#000000" transform="translate(0,0)"/>
<path d="" fill="#000000" transform="translate(0,0)"/>
<path d="" fill="#000000" transform="translate(0,0)"/>
<path d="" fill="#000000" transform="translate(0,0)"/>
<path d="" fill="#000000" transform="translate(0,0)"/>
<path d="" fill="#000000" transform="translate(0,0)"/>
<path d="" fill="#000000" transform="translate(0,0)"/>
<path d="" fill="#000000" transform="translate(0,0)"/>
<path d="" fill="#000000" transform="translate(0,0)"/>
<path d="" fill="#000000" transform="translate(0,0)"/>
<path d="" fill="#000000" transform="translate(0,0)"/>
<path d="" fill="#000000" transform="translate(0,0)"/>
<path d="" fill="#000000" transform="translate(0,0)"/>
<path d="" fill="#000000" transform="translate(0,0)"/>
<path d="" fill="#000000" transform="translate(0,0)"/>
<path d="" fill="#000000" transform="translate(0,0)"/>
<path d="" fill="#000000" transform="translate(0,0)"/>
<path d="" fill="#000000" transform="translate(0,0)"/>
<path d="" fill="#000000" transform="translate(0,0)"/>
<path d="" fill="#000000" transform="translate(0,0)"/>
<path d="" fill="#000000" transform="translate(0,0)"/>
<path d="" fill="#000000" transform="translate(0,0)"/>
<path d="" fill="#000000" transform="translate(0,0)"/>
<path d="" fill="#000000" transform="translate(0,0)"/>
<path d="" fill="#000000" transform="translate(0,0)"/>
</svg>
